<mxfile host="Electron" modified="2024-04-05T13:41:38.774Z" agent="Mozilla/5.0 (Windows NT 10.0; Win64; x64) AppleWebKit/537.36 (KHTML, like Gecko) draw.io/23.1.5 Chrome/120.0.6099.109 Electron/28.1.0 Safari/537.36" etag="_9b_TMEJSpqVtYHnpGNE" version="23.1.5" type="device">
  <diagram name="Страница — 1" id="JLULOAlkJ3aI0VZnD2LQ">
    <mxGraphModel dx="920" dy="602" grid="1" gridSize="10" guides="1" tooltips="1" connect="1" arrows="1" fold="1" page="1" pageScale="1" pageWidth="827" pageHeight="1169" math="0" shadow="0">
      <root>
        <mxCell id="0" />
        <mxCell id="1" parent="0" />
        <mxCell id="eK8r_A50t8bRqNx5gnWp-4" style="edgeStyle=orthogonalEdgeStyle;rounded=0;orthogonalLoop=1;jettySize=auto;html=1;exitX=0.5;exitY=1;exitDx=0;exitDy=0;entryX=0.5;entryY=0;entryDx=0;entryDy=0;" parent="1" source="gBKuoCQjEU2EA3JGXyk2-1" target="gBKuoCQjEU2EA3JGXyk2-3" edge="1">
          <mxGeometry relative="1" as="geometry" />
        </mxCell>
        <mxCell id="gBKuoCQjEU2EA3JGXyk2-1" value="Начало" style="rounded=1;whiteSpace=wrap;html=1;arcSize=35;" parent="1" vertex="1">
          <mxGeometry x="290" y="280" width="90" height="50" as="geometry" />
        </mxCell>
        <mxCell id="eK8r_A50t8bRqNx5gnWp-5" style="edgeStyle=orthogonalEdgeStyle;rounded=0;orthogonalLoop=1;jettySize=auto;html=1;exitX=0;exitY=0.5;exitDx=0;exitDy=0;entryX=1;entryY=0.5;entryDx=0;entryDy=0;" parent="1" source="gBKuoCQjEU2EA3JGXyk2-3" target="mVvoFzOm8W_NfxXXfwmJ-1" edge="1">
          <mxGeometry relative="1" as="geometry" />
        </mxCell>
        <mxCell id="gBKuoCQjEU2EA3JGXyk2-3" value="n = рандомное значение &amp;lt; 15" style="rounded=0;whiteSpace=wrap;html=1;" parent="1" vertex="1">
          <mxGeometry x="350" y="380" width="126.25" height="60" as="geometry" />
        </mxCell>
        <mxCell id="eK8r_A50t8bRqNx5gnWp-6" style="edgeStyle=orthogonalEdgeStyle;rounded=0;orthogonalLoop=1;jettySize=auto;html=1;exitX=0.5;exitY=1;exitDx=0;exitDy=0;entryX=0.5;entryY=0;entryDx=0;entryDy=0;" parent="1" source="mVvoFzOm8W_NfxXXfwmJ-1" target="FaUPefRK3cK26D1pfbpW-3" edge="1">
          <mxGeometry relative="1" as="geometry" />
        </mxCell>
        <mxCell id="mVvoFzOm8W_NfxXXfwmJ-1" value="a и b = пустые списки" style="rounded=0;whiteSpace=wrap;html=1;" parent="1" vertex="1">
          <mxGeometry x="200" y="380" width="120" height="60" as="geometry" />
        </mxCell>
        <mxCell id="eK8r_A50t8bRqNx5gnWp-1" style="edgeStyle=orthogonalEdgeStyle;rounded=0;orthogonalLoop=1;jettySize=auto;html=1;exitX=0.5;exitY=1;exitDx=0;exitDy=0;entryX=0.5;entryY=0;entryDx=0;entryDy=0;" parent="1" source="FaUPefRK3cK26D1pfbpW-3" target="FaUPefRK3cK26D1pfbpW-5" edge="1">
          <mxGeometry relative="1" as="geometry" />
        </mxCell>
        <mxCell id="FaUPefRK3cK26D1pfbpW-3" value="Пока i&amp;lt;n, i + 1" style="shape=trapezoid;perimeter=trapezoidPerimeter;whiteSpace=wrap;html=1;fixedSize=1;" parent="1" vertex="1">
          <mxGeometry x="200" y="470" width="120" height="60" as="geometry" />
        </mxCell>
        <mxCell id="CGa6Fxl0Fuv-53UOxvrA-11" style="edgeStyle=orthogonalEdgeStyle;rounded=0;orthogonalLoop=1;jettySize=auto;html=1;exitX=1;exitY=0.5;exitDx=0;exitDy=0;entryX=0;entryY=0.5;entryDx=0;entryDy=0;" edge="1" parent="1" source="FaUPefRK3cK26D1pfbpW-5" target="CGa6Fxl0Fuv-53UOxvrA-1">
          <mxGeometry relative="1" as="geometry" />
        </mxCell>
        <mxCell id="FaUPefRK3cK26D1pfbpW-5" value="num = рандобное число &amp;lt; 15" style="rounded=0;whiteSpace=wrap;html=1;" parent="1" vertex="1">
          <mxGeometry x="130" y="570" width="120" height="60" as="geometry" />
        </mxCell>
        <mxCell id="CGa6Fxl0Fuv-53UOxvrA-19" style="edgeStyle=orthogonalEdgeStyle;rounded=0;orthogonalLoop=1;jettySize=auto;html=1;exitX=0.5;exitY=1;exitDx=0;exitDy=0;entryX=0.5;entryY=0;entryDx=0;entryDy=0;" edge="1" parent="1" source="FaUPefRK3cK26D1pfbpW-11" target="CGa6Fxl0Fuv-53UOxvrA-13">
          <mxGeometry relative="1" as="geometry" />
        </mxCell>
        <mxCell id="FaUPefRK3cK26D1pfbpW-11" value="Конец цикла" style="verticalLabelPosition=middle;verticalAlign=middle;html=1;shape=trapezoid;perimeter=trapezoidPerimeter;whiteSpace=wrap;size=0.23;arcSize=10;flipV=1;labelPosition=center;align=center;" parent="1" vertex="1">
          <mxGeometry x="200" y="670" width="117.5" height="60" as="geometry" />
        </mxCell>
        <mxCell id="CGa6Fxl0Fuv-53UOxvrA-3" style="edgeStyle=orthogonalEdgeStyle;rounded=0;orthogonalLoop=1;jettySize=auto;html=1;exitX=0.5;exitY=1;exitDx=0;exitDy=0;entryX=0.5;entryY=0;entryDx=0;entryDy=0;" edge="1" parent="1" source="CGa6Fxl0Fuv-53UOxvrA-1" target="FaUPefRK3cK26D1pfbpW-11">
          <mxGeometry relative="1" as="geometry" />
        </mxCell>
        <mxCell id="CGa6Fxl0Fuv-53UOxvrA-1" value="Добавляем num в a" style="rounded=0;whiteSpace=wrap;html=1;" vertex="1" parent="1">
          <mxGeometry x="283.75" y="570" width="120" height="60" as="geometry" />
        </mxCell>
        <mxCell id="CGa6Fxl0Fuv-53UOxvrA-20" style="edgeStyle=orthogonalEdgeStyle;rounded=0;orthogonalLoop=1;jettySize=auto;html=1;exitX=0.5;exitY=1;exitDx=0;exitDy=0;entryX=0.5;entryY=0;entryDx=0;entryDy=0;" edge="1" parent="1" source="CGa6Fxl0Fuv-53UOxvrA-13" target="CGa6Fxl0Fuv-53UOxvrA-18">
          <mxGeometry relative="1" as="geometry" />
        </mxCell>
        <mxCell id="CGa6Fxl0Fuv-53UOxvrA-13" value="Пока i&amp;lt;n, i + 3" style="shape=trapezoid;perimeter=trapezoidPerimeter;whiteSpace=wrap;html=1;fixedSize=1;" vertex="1" parent="1">
          <mxGeometry x="387.5" y="720" width="120" height="60" as="geometry" />
        </mxCell>
        <mxCell id="CGa6Fxl0Fuv-53UOxvrA-22" style="edgeStyle=orthogonalEdgeStyle;rounded=0;orthogonalLoop=1;jettySize=auto;html=1;exitX=0.5;exitY=1;exitDx=0;exitDy=0;entryX=1;entryY=0.5;entryDx=0;entryDy=0;" edge="1" parent="1" source="CGa6Fxl0Fuv-53UOxvrA-16" target="CGa6Fxl0Fuv-53UOxvrA-21">
          <mxGeometry relative="1" as="geometry" />
        </mxCell>
        <mxCell id="CGa6Fxl0Fuv-53UOxvrA-16" value="Конец цикла" style="verticalLabelPosition=middle;verticalAlign=middle;html=1;shape=trapezoid;perimeter=trapezoidPerimeter;whiteSpace=wrap;size=0.23;arcSize=10;flipV=1;labelPosition=center;align=center;" vertex="1" parent="1">
          <mxGeometry x="388.75" y="920" width="117.5" height="60" as="geometry" />
        </mxCell>
        <mxCell id="CGa6Fxl0Fuv-53UOxvrA-17" style="edgeStyle=orthogonalEdgeStyle;rounded=0;orthogonalLoop=1;jettySize=auto;html=1;exitX=0.5;exitY=1;exitDx=0;exitDy=0;entryX=0.5;entryY=0;entryDx=0;entryDy=0;" edge="1" parent="1" source="CGa6Fxl0Fuv-53UOxvrA-18" target="CGa6Fxl0Fuv-53UOxvrA-16">
          <mxGeometry relative="1" as="geometry" />
        </mxCell>
        <mxCell id="CGa6Fxl0Fuv-53UOxvrA-18" value="Добавляем a[i] в b" style="rounded=0;whiteSpace=wrap;html=1;" vertex="1" parent="1">
          <mxGeometry x="387.5" y="820" width="120" height="60" as="geometry" />
        </mxCell>
        <mxCell id="CGa6Fxl0Fuv-53UOxvrA-21" value="Вывод a, b и длинну списка b" style="rounded=0;whiteSpace=wrap;html=1;" vertex="1" parent="1">
          <mxGeometry x="200" y="920" width="120" height="60" as="geometry" />
        </mxCell>
      </root>
    </mxGraphModel>
  </diagram>
</mxfile>
